<svg aria-hidden="true" style="position: absolute; width: 0; height: 0; overflow: hidden;" version="1.1" xmlns="http://www.w3.org/2000/svg" xmlns:xlink="http://www.w3.org/1999/xlink">
<defs>
<symbol id="icon-facebook" viewBox="0 0 32 32">
<path d="M30.933 15.467c0-0.002 0-0.004 0-0.006 0-8.542-6.925-15.467-15.467-15.467s-15.467 6.925-15.467 15.467c0 7.681 5.598 14.053 12.937 15.261l0.090 0.012v-10.8h-3.907v-4.467h3.92v-3.413c0-3.867 2.32-6.013 5.84-6.013 1.693 0 3.467 0.307 3.467 0.307v3.787h-1.947c-1.92 0-2.533 1.2-2.533 2.413v2.907h4.293l-0.68 4.467h-3.6v10.8c7.432-1.213 13.036-7.585 13.040-15.266v-0z"></path>
</symbol>
<symbol id="icon-instagram" viewBox="0 0 32 32">
<path  d="M16 2.88c4.271 0 4.786 0.014 6.456 0.097 1.073 0.012 2.094 0.215 3.037 0.577l-0.060-0.020c0.737 0.278 1.28 0.626 1.837 1.183s0.904 1.099 1.197 1.837c0.209 0.557 0.473 1.419 0.557 2.977 0.070 1.67 0.083 2.184 0.083 6.456s-0.014 4.786-0.097 6.47c-0.014 1.068-0.217 2.085-0.577 3.024l0.020-0.060c-0.278 0.737-0.626 1.28-1.183 1.837s-1.099 0.904-1.837 1.197c-0.557 0.223-1.419 0.473-2.977 0.557-1.67 0.070-2.184 0.083-6.456 0.083s-4.786-0.014-6.456-0.097c-1.073-0.012-2.094-0.215-3.037-0.577l0.060 0.020c-0.737-0.278-1.28-0.626-1.837-1.183s-0.904-1.099-1.197-1.837c-0.339-0.879-0.542-1.895-0.556-2.957l-0-0.006c-0.062-1.399-0.098-3.040-0.098-4.689 0-0.626 0.005-1.251 0.015-1.875l-0.001 0.094c0-4.271 0.014-4.786 0.097-6.456 0.012-1.073 0.215-2.094 0.577-3.037l-0.020 0.060c0.278-0.737 0.626-1.28 1.183-1.837s1.099-0.904 1.837-1.197c0.557-0.209 1.419-0.473 2.977-0.557 1.67-0.070 2.184-0.083 6.456-0.083zM16 0c-4.341 0-4.883 0.014-6.595 0.097-1.401 0.026-2.731 0.294-3.962 0.764l0.080-0.027c-1.057 0.417-1.948 0.96-2.838 1.85-0.796 0.78-1.426 1.727-1.832 2.785l-0.018 0.054c-0.443 1.15-0.711 2.481-0.737 3.87l-0 0.011c-0.069 1.502-0.108 3.264-0.108 5.035 0 0.548 0.004 1.096 0.011 1.642l-0.001-0.083c0 4.341 0.014 4.883 0.097 6.595 0.026 1.401 0.294 2.731 0.764 3.962l-0.027-0.080c0.417 1.057 0.96 1.948 1.85 2.838 0.781 0.791 1.728 1.416 2.785 1.819l0.054 0.018c1.016 0.403 2.17 0.668 3.882 0.751 1.697 0.070 2.24 0.097 6.595 0.097 4.341 0 4.87-0.028 6.581-0.097 1.407-0.029 2.742-0.302 3.976-0.778l-0.080 0.027c1.043-0.403 1.948-0.946 2.824-1.837 0.791-0.781 1.416-1.728 1.819-2.785l0.018-0.054c0.403-1.016 0.682-2.17 0.751-3.882 0.070-1.697 0.097-2.24 0.097-6.595 0-4.341-0.028-4.87-0.097-6.581-0.029-1.407-0.302-2.742-0.778-3.976l0.027 0.080c-0.406-1.113-1.028-2.062-1.821-2.837l-0.001-0.001c-0.781-0.791-1.728-1.416-2.785-1.819l-0.054-0.018c-1.149-0.447-2.479-0.72-3.868-0.751l-0.013-0c-1.465-0.070-3.183-0.11-4.91-0.11-0.593 0-1.184 0.005-1.774 0.014l0.089-0.001z"></path>
<path  d="M16 7.791c-4.537 0-8.216 3.678-8.216 8.216s3.678 8.216 8.216 8.216v0c4.541 0 8.223-3.681 8.223-8.223s-3.681-8.223-8.223-8.223v0zM16 21.329c-2.943 0-5.329-2.386-5.329-5.329s2.386-5.329 5.329-5.329v0c2.943 0 5.329 2.386 5.329 5.329s-2.386 5.329-5.329 5.329v0zM26.463 7.457c0 1.060-0.86 1.92-1.92 1.92s-1.92-0.86-1.92-1.92v0c0-1.060 0.86-1.92 1.92-1.92s1.92 0.86 1.92 1.92v0z"></path>
</symbol>
<symbol id="icon-letter" viewBox="0 0 32 32">
<path  d="M31.467 6.72c-0.008-1.705-1.388-3.086-3.093-3.093h-24.747c-1.705 0.008-3.086 1.388-3.093 3.093v18.561c0.008 1.705 1.388 3.086 3.093 3.093h24.747c1.705-0.008 3.086-1.388 3.093-3.093v-18.561zM28.373 6.72l-12.373 7.733-12.373-7.733h24.747zM28.373 25.28h-24.747v-15.467l12.373 7.733 12.373-7.733v15.467z"></path>
</symbol>
<symbol id="icon-Vector-T" viewBox="0 0 27 32">
<path fill="#d27487" style="fill: var(--color2, #d27487)" d="M10.3 31.36v-25.53h-9.31v-5.3h25.060v5.3h-9.32v25.53h-6.43z"></path>
</symbol>
<symbol id="icon-Vector-C" viewBox="0 0 27 32">
<path fill="#d27487" style="fill: var(--color2, #d27487)" d="M14.1 31.89c-2.77 0-5.16-0.67-7.16-2-2-1.32-3.55-3.17-4.64-5.56-1.039-2.354-1.644-5.098-1.644-7.984 0-0.143 0.001-0.285 0.004-0.427l-0 0.021c0-3.24 0.56-6.050 1.68-8.43 1.043-2.293 2.664-4.168 4.681-5.49l0.049-0.030c1.973-1.251 4.376-1.993 6.952-1.993 0.105 0 0.209 0.001 0.313 0.004l-0.015-0c2.18 0 4.18 0.43 6.010 1.28s3.32 2.1 4.46 3.71c1.172 1.611 1.908 3.606 1.999 5.768l0.001 0.022h-7.030c-0.108-1.541-0.727-2.92-1.685-3.986l0.005 0.006c-0.95-1-2.2-1.5-3.76-1.5-1.36 0-2.56 0.41-3.63 1.24-1.133 0.942-2.002 2.165-2.502 3.563l-0.018 0.057c-0.561 1.6-0.885 3.444-0.885 5.365 0 0.146 0.002 0.292 0.006 0.437l-0-0.021c0 2.27 0.3 4.2 0.88 5.79 0.489 1.444 1.316 2.665 2.391 3.612l0.009 0.008c0.94 0.772 2.155 1.24 3.479 1.24 0.018 0 0.036-0 0.054-0l-0.003 0c0.034 0.001 0.073 0.001 0.113 0.001 1.007 0 1.957-0.248 2.79-0.687l-0.033 0.016c0.832-0.481 1.506-1.151 1.976-1.955l0.014-0.025c0.53-0.86 0.85-1.87 0.97-3.050h6.99c-0.21 2.24-0.86 4.18-1.95 5.83-1.098 1.642-2.577 2.948-4.316 3.811l-0.064 0.029c-1.82 0.88-3.99 1.33-6.5 1.33z"></path>
</symbol>
<symbol id="icon-Vector-F" viewBox="0 0 24 32">
<path fill="#d27487" style="fill: var(--color2, #d27487)" d="M0.84 31.36v-30.83h22.94v5.3h-16.53v6.93h11.040v5.3h-11.040v13.3h-6.41z"></path>
</symbol>
<symbol id="icon-Vector-A" viewBox="0 0 27 32">
<path fill="#d27487" style="fill: var(--color2, #d27487)" d="M5.2 24.82v-5.3h17.8v5.3h-17.8zM8.96 0.53h9.5l8.4 30.83h-6.54l-4.78-18.46-1.84-7.73-1.86 7.73-4.86 18.46h-6.38l8.36-30.83z"></path>
</symbol>
<symbol id="icon-Vector-E" viewBox="0 0 23 32">
<path fill="#d27487" style="fill: var(--color2, #d27487)" d="M0.020 31.36v-30.83h22.63v5.3h-16.17v6.93h10.7v5.3h-10.71v8h16.35v5.3h-22.79z"></path>
</symbol>
<symbol id="icon-Vector-L" viewBox="0 0 23 32">
<path fill="#d27487" style="fill: var(--color2, #d27487)" d="M0.68 31.36v-30.83h6.42v25.53h15.34v5.3h-21.76z"></path>
</symbol>
</defs>
</svg>
